<?xml version="1.0" encoding="UTF-8"?>
<svg xmlns="http://www.w3.org/2000/svg" xmlns:xlink="http://www.w3.org/1999/xlink" width="1000px" height="245px" viewBox="0 0 1000 245" version="1.1">
<g id="surface1">
<path style=" stroke:none;fill-rule:nonzero;fill:rgb(3.921569%,33.72549%,55.686275%);fill-opacity:1;" d="M 21.984375 114.492188 L 9.488281 121.773438 C 5.527344 124.085938 0.527344 121.246094 0.527344 116.664062 L 0.527344 66.296875 C 0.527344 62.441406 2.609375 58.871094 5.957031 56.945312 L 102.863281 1.445312 C 106.234375 -0.480469 110.359375 -0.480469 113.726562 1.445312 L 210.59375 56.945312 C 213.964844 58.871094 216.027344 62.441406 216.027344 66.296875 L 216.027344 116.722656 C 216.027344 121.289062 211.023438 124.148438 207.0625 121.816406 L 194.484375 114.472656 C 192.667969 113.417969 191.542969 111.46875 191.542969 109.378906 L 191.542969 80.535156 C 191.542969 76.679688 189.480469 73.132812 186.132812 71.203125 L 113.746094 29.4375 C 110.378906 27.492188 106.214844 27.492188 102.84375 29.4375 L 30.335938 71.203125 C 26.988281 73.132812 24.925781 76.703125 24.925781 80.535156 L 24.925781 109.378906 C 24.925781 111.492188 23.804688 113.417969 21.984375 114.492188 Z M 21.984375 114.492188 "/>
<path style=" stroke:none;fill-rule:nonzero;fill:rgb(49.803922%,82.745098%,30.980392%);fill-opacity:1;" d="M 102.84375 83.457031 L 5.9375 139.058594 C 2.585938 140.964844 0.546875 144.515625 0.546875 148.347656 L 0.546875 177.457031 C 0.546875 181.289062 2.609375 184.839844 5.957031 186.746094 L 102.882812 242.285156 C 106.214844 244.195312 110.335938 244.195312 113.664062 242.285156 L 210.65625 186.746094 C 214.003906 184.839844 216.066406 181.289062 216.066406 177.457031 L 216.066406 148.347656 C 216.066406 144.515625 214.003906 140.964844 210.65625 139.058594 L 113.664062 83.457031 C 110.296875 81.53125 106.191406 81.53125 102.84375 83.457031 Z M 188.582031 171.410156 L 113.6875 214.355469 C 110.335938 216.261719 106.234375 216.261719 102.90625 214.355469 L 27.925781 171.410156 C 26.089844 170.355469 24.945312 168.410156 24.945312 166.28125 L 24.945312 159.625 C 24.945312 157.515625 26.089844 155.550781 27.925781 154.496094 L 87.203125 120.679688 C 91.164062 118.40625 96.125 121.269531 96.125 125.8125 L 96.125 192.304688 C 96.125 194.414062 97.25 196.363281 99.085938 197.417969 L 105.273438 201.007812 C 107.113281 202.082031 109.398438 202.082031 111.257812 201.027344 L 117.523438 197.417969 C 119.363281 196.363281 120.507812 194.414062 120.507812 192.304688 L 120.507812 125.832031 C 120.507812 121.289062 125.46875 118.449219 129.429688 120.699219 L 188.601562 154.496094 C 190.441406 155.550781 191.585938 157.496094 191.585938 159.625 L 191.585938 166.28125 C 191.5625 168.410156 190.421875 170.355469 188.582031 171.410156 Z M 188.582031 171.410156 "/>
<path style=" stroke:none;fill-rule:nonzero;fill:rgb(3.921569%,33.72549%,55.686275%);fill-opacity:1;" d="M 346.175781 60.109375 C 343.601562 59.945312 341.417969 59.867188 339.621094 59.867188 C 337.640625 59.867188 335.375 59.925781 332.777344 60.046875 C 330.207031 60.171875 328.023438 60.394531 326.226562 60.71875 L 283.324219 188.753906 L 284.082031 189.890625 C 285.550781 190.335938 287.289062 190.703125 289.289062 190.988281 C 291.289062 191.269531 293.25 191.414062 295.167969 191.414062 C 296.945312 191.414062 298.679688 191.351562 300.375 191.230469 C 302.070312 191.109375 303.640625 190.886719 305.113281 190.5625 L 314.707031 160.011719 C 315.21875 160.011719 315.75 160.03125 316.445312 160.03125 C 318.140625 160.074219 319.792969 160.09375 321.46875 160.132812 C 323.121094 160.175781 324.265625 160.175781 324.898438 160.175781 L 351.464844 160.175781 C 352.097656 160.175781 353.238281 160.152344 354.894531 160.132812 C 356.546875 160.113281 358.222656 160.074219 359.914062 160.03125 C 360.691406 160.011719 361.324219 160.011719 361.898438 159.992188 L 367.980469 179.527344 C 369.453125 184.394531 371.1875 187.660156 373.1875 189.304688 C 375.191406 190.945312 378.046875 191.777344 381.746094 191.777344 C 384.03125 191.777344 386.398438 191.535156 388.871094 191.066406 C 391.339844 190.601562 393.382812 189.890625 395.035156 188.9375 L 352.625 60.820312 C 350.890625 60.496094 348.746094 60.273438 346.175781 60.109375 Z M 355.199219 141.632812 C 353.667969 141.613281 352.136719 141.574219 350.605469 141.53125 C 349.074219 141.492188 347.992188 141.492188 347.359375 141.492188 L 329.59375 141.492188 C 328.960938 141.492188 327.898438 141.511719 326.390625 141.53125 C 324.878906 141.554688 323.40625 141.59375 321.9375 141.632812 C 321.386719 141.65625 320.917969 141.65625 320.46875 141.65625 L 329.675781 112.34375 C 330.433594 109.808594 331.308594 106.804688 332.3125 103.316406 C 333.292969 99.828125 334.269531 96.277344 335.230469 92.644531 C 336.191406 89.015625 336.984375 85.667969 337.617188 82.625 L 338.660156 82.625 C 340.070312 88 341.683594 93.925781 343.539062 100.375 C 345.378906 106.824219 347.175781 112.769531 348.890625 118.226562 L 356.179688 141.632812 C 355.851562 141.65625 355.589844 141.65625 355.199219 141.632812 Z M 355.199219 141.632812 "/>
<path style=" stroke:none;fill-rule:nonzero;fill:rgb(3.921569%,33.72549%,55.686275%);fill-opacity:1;" d="M 434.300781 96.5625 L 434.300781 68.6875 L 432.953125 67.453125 L 424.460938 67.453125 C 419.867188 67.453125 416.722656 68.527344 415.007812 70.675781 C 413.292969 72.828125 412.433594 76.378906 412.433594 81.308594 L 412.433594 96.460938 L 398.101562 96.214844 C 397.527344 98.933594 397.242188 101.589844 397.242188 104.1875 C 397.242188 107.167969 397.527344 109.910156 398.101562 112.445312 L 412.433594 112.199219 L 412.433594 169.871094 C 412.433594 177.089844 414.25 182.445312 417.886719 185.957031 C 421.519531 189.464844 426.871094 191.230469 433.933594 191.230469 C 437.691406 191.230469 441.511719 191.089844 445.390625 190.804688 C 449.269531 190.519531 452.863281 190.15625 456.191406 189.707031 C 456.375 189.019531 456.519531 188.226562 456.578125 187.335938 C 456.640625 186.441406 456.679688 185.589844 456.679688 184.78125 C 456.679688 180.863281 456.066406 177.214844 454.863281 173.867188 L 442.347656 173.867188 C 439.40625 173.867188 437.34375 173.117188 436.140625 171.59375 C 434.9375 170.074219 434.324219 168.042969 434.324219 165.507812 L 434.324219 112.121094 L 457.640625 112.464844 C 458.335938 109.929688 458.683594 107.191406 458.683594 104.207031 C 458.683594 101.613281 458.335938 98.953125 457.640625 96.234375 Z M 434.300781 96.5625 "/>
<path style=" stroke:none;fill-rule:nonzero;fill:rgb(3.921569%,33.72549%,55.686275%);fill-opacity:1;" d="M 549.832031 163.703125 L 549.832031 96.417969 C 548.238281 96.175781 546.484375 95.953125 544.523438 95.8125 C 542.582031 95.648438 540.621094 95.566406 538.640625 95.566406 C 536.664062 95.566406 534.699219 95.648438 532.722656 95.8125 C 530.742188 95.972656 529.027344 96.175781 527.554688 96.417969 L 527.554688 161.554688 C 526.820312 162.324219 526.167969 163.15625 525.347656 163.847656 C 522.226562 166.542969 518.957031 168.570312 515.546875 169.972656 C 512.136719 171.371094 508.972656 172.0625 506.035156 172.0625 C 501.765625 172.0625 498.886719 170.722656 497.394531 168.066406 C 495.90625 165.40625 495.152344 161.167969 495.152344 155.347656 L 495.152344 109.035156 C 495.152344 104.472656 494.25 101.023438 492.476562 98.652344 C 490.699219 96.277344 487.59375 95.082031 483.203125 95.082031 C 480.46875 95.082031 477.855469 95.527344 475.367188 96.417969 C 472.875 97.3125 470.832031 98.449219 469.257812 99.828125 C 470.585938 102.097656 471.527344 104.757812 472.035156 107.757812 C 472.546875 110.761719 472.792969 113.964844 472.792969 117.394531 L 472.792969 160.296875 C 472.792969 166.300781 473.710938 171.714844 475.507812 176.523438 C 477.324219 181.332031 480.121094 185.125 483.917969 187.925781 C 487.71875 190.703125 492.554688 192.101562 498.476562 192.101562 C 505.359375 192.101562 511.769531 190.398438 517.691406 186.96875 C 522.226562 184.355469 526.269531 181.351562 529.820312 177.964844 C 530.515625 179.6875 531.292969 181.371094 532.3125 182.933594 C 535.496094 187.902344 540.5 190.867188 547.320312 191.820312 C 548.972656 190.742188 550.566406 189.101562 552.097656 186.890625 C 553.628906 184.679688 554.652344 182.546875 555.160156 180.519531 C 553.242188 178.875 551.875 176.523438 551.054688 173.5 C 550.242188 170.457031 549.832031 167.191406 549.832031 163.703125 Z M 549.832031 163.703125 "/>
<path style=" stroke:none;fill-rule:nonzero;fill:rgb(3.921569%,33.72549%,55.686275%);fill-opacity:1;" d="M 624.363281 95.082031 C 618.867188 95.082031 614.273438 96.296875 610.558594 98.730469 C 606.820312 101.164062 603.859375 104.371094 601.613281 108.324219 C 600.917969 109.5625 600.371094 110.921875 599.777344 112.261719 C 598.816406 109.441406 597.632812 106.824219 596.121094 104.53125 C 592.652344 99.320312 587.402344 96.136719 580.398438 95 C 578.808594 96.136719 577.253906 97.878906 575.765625 100.210938 C 574.273438 102.546875 573.273438 104.695312 572.761719 106.664062 C 574.355469 108.0625 575.925781 110.375 577.5 113.640625 C 579.050781 116.90625 579.847656 121.085938 579.847656 126.21875 L 579.847656 190.378906 C 581.441406 190.703125 583.195312 190.925781 585.15625 191.046875 C 587.097656 191.167969 589.054688 191.230469 591.039062 191.230469 C 593.019531 191.230469 594.976562 191.167969 596.957031 191.046875 C 598.941406 190.925781 600.65625 190.703125 602.125 190.378906 L 602.125 129.320312 C 603.289062 127.171875 604.554688 125.164062 606.042969 123.378906 C 607.882812 121.167969 610.089844 119.382812 612.640625 118.023438 C 615.191406 116.664062 618.152344 115.972656 621.523438 115.972656 C 622.847656 116.09375 624.21875 116.238281 625.585938 116.398438 C 626.953125 116.5625 628.34375 116.824219 629.75 117.210938 C 631.671875 114.105469 633.058594 110.558594 633.957031 106.582031 C 634.855469 102.605469 635.285156 99.179688 635.285156 96.335938 C 633.386719 95.953125 631.589844 95.667969 629.9375 95.445312 C 628.242188 95.203125 626.382812 95.082031 624.363281 95.082031 Z M 624.363281 95.082031 "/>
<path style=" stroke:none;fill-rule:nonzero;fill:rgb(49.803922%,82.745098%,30.980392%);fill-opacity:1;" d="M 729.742188 69.644531 C 729.742188 68.183594 729.621094 66.660156 729.414062 65.039062 C 729.191406 63.414062 728.886719 61.976562 728.496094 60.71875 L 638.878906 60.71875 C 638.550781 62.421875 638.328125 64.105469 638.203125 65.75 C 638.082031 67.390625 638.019531 68.953125 638.019531 70.394531 C 638.019531 71.710938 638.082031 73.234375 638.203125 74.898438 C 638.328125 76.582031 638.550781 78.242188 638.878906 79.886719 L 660.847656 79.886719 C 662.195312 79.886719 664.078125 79.847656 666.484375 79.785156 C 668.894531 79.722656 670.792969 79.683594 672.121094 79.683594 L 672.222656 79.683594 C 672.222656 82.339844 672.203125 84.695312 672.179688 86.761719 C 672.140625 88.8125 672.140625 91.144531 672.140625 93.742188 L 672.140625 190.378906 C 673.976562 190.703125 675.9375 190.925781 678.023438 191.046875 C 680.085938 191.167969 681.980469 191.230469 683.699219 191.230469 C 685.351562 191.230469 687.207031 191.167969 689.292969 191.046875 C 691.355469 190.925781 693.316406 190.703125 695.171875 190.378906 L 695.171875 93.761719 C 695.171875 91.164062 695.152344 88.832031 695.132812 86.785156 C 695.09375 84.734375 695.09375 82.363281 695.09375 79.703125 L 695.191406 79.703125 C 696.519531 79.703125 698.417969 79.746094 700.871094 79.804688 C 703.320312 79.867188 705.179688 79.90625 706.464844 79.90625 L 717.265625 79.90625 C 721.535156 79.90625 724.699219 79.136719 726.722656 77.574219 C 728.722656 76.03125 729.742188 73.375 729.742188 69.644531 Z M 729.742188 69.644531 "/>
<path style=" stroke:none;fill-rule:nonzero;fill:rgb(49.803922%,82.745098%,30.980392%);fill-opacity:1;" d="M 787.773438 100.171875 C 781.5625 95.972656 773.804688 93.863281 764.515625 93.863281 C 755.347656 93.863281 747.628906 95.953125 741.402344 100.132812 C 735.152344 104.308594 730.457031 110.109375 727.3125 117.554688 C 724.148438 125 722.574219 133.621094 722.574219 143.417969 C 722.574219 153.15625 724.125 161.757812 727.25 169.179688 C 730.375 176.625 735.050781 182.445312 741.300781 186.644531 C 747.546875 190.84375 755.289062 192.953125 764.515625 192.953125 C 773.683594 192.953125 781.402344 190.863281 787.628906 186.6875 C 793.878906 182.507812 798.59375 176.707031 801.820312 169.261719 C 805.027344 161.816406 806.636719 153.195312 806.636719 143.398438 C 806.636719 133.660156 805.046875 125.0625 801.863281 117.636719 C 798.675781 110.191406 793.980469 104.371094 787.773438 100.171875 Z M 781.953125 159.382812 C 780.910156 164.351562 779.011719 168.371094 776.277344 171.433594 C 773.539062 174.496094 769.660156 176.035156 764.617188 176.035156 C 759.511719 176.035156 755.613281 174.496094 752.878906 171.433594 C 750.140625 168.371094 748.242188 164.351562 747.199219 159.382812 C 746.160156 154.414062 745.628906 149.078125 745.628906 143.398438 C 745.628906 137.699219 746.160156 132.363281 747.199219 127.351562 C 748.242188 122.363281 750.140625 118.304688 752.878906 115.203125 C 755.613281 112.097656 759.535156 110.558594 764.617188 110.558594 C 769.640625 110.558594 773.539062 112.097656 776.277344 115.203125 C 779.011719 118.304688 780.910156 122.363281 781.953125 127.351562 C 783.015625 132.34375 783.527344 137.699219 783.527344 143.398438 C 783.527344 149.097656 782.992188 154.433594 781.953125 159.382812 Z M 781.953125 159.382812 "/>
<path style=" stroke:none;fill-rule:nonzero;fill:rgb(49.803922%,82.745098%,30.980392%);fill-opacity:1;" d="M 903.628906 179.382812 C 902.21875 177.050781 900.789062 173.785156 899.320312 169.605469 L 893.214844 154.414062 C 890.664062 147.902344 887.152344 143.195312 882.660156 140.316406 C 880.71875 139.078125 878.515625 138.164062 876.144531 137.457031 C 878.980469 135.386719 881.390625 132.628906 883.375 129.160156 L 902.667969 97.554688 L 901.527344 96.035156 C 899.484375 95.910156 897.523438 95.832031 895.644531 95.789062 C 893.765625 95.769531 891.683594 95.75 889.375 95.75 C 885.863281 95.75 883.085938 96.5 881.023438 98.023438 C 878.941406 99.542969 877.125 101.753906 875.53125 104.675781 L 860.523438 129.078125 C 859.890625 130.152344 859.195312 130.921875 858.460938 131.347656 C 857.726562 131.777344 856.828125 132.019531 855.746094 132.019531 L 850.210938 132.160156 L 850.210938 64.613281 C 850.210938 59.683594 849.335938 56.132812 847.578125 53.984375 C 845.824219 51.832031 842.660156 50.757812 838.0625 50.757812 L 829.570312 50.757812 L 828.324219 51.996094 L 828.324219 190.378906 C 831.511719 190.945312 835.101562 191.230469 839.125 191.230469 C 841.105469 191.230469 843.046875 191.167969 844.945312 191.046875 C 846.863281 190.925781 848.601562 190.703125 850.191406 190.378906 L 850.191406 150.722656 C 850.824219 150.660156 851.539062 150.601562 852.152344 150.558594 C 854.09375 150.398438 856.09375 150.316406 858.132812 150.316406 C 862.078125 150.316406 865.097656 151.105469 867.222656 152.6875 C 869.324219 154.269531 871.304688 157.394531 873.140625 162.082031 L 880.308594 180.113281 C 881.78125 184.027344 883.394531 186.949219 885.191406 188.835938 C 886.964844 190.742188 889.742188 191.675781 893.5 191.675781 C 896.359375 191.675781 899.175781 191.007812 901.914062 189.6875 C 904.648438 188.351562 906.855469 186.707031 908.507812 184.757812 C 906.652344 183.523438 905.035156 181.714844 903.628906 179.382812 Z M 903.628906 179.382812 "/>
<path style=" stroke:none;fill-rule:nonzero;fill:rgb(49.803922%,82.745098%,30.980392%);fill-opacity:1;" d="M 994.675781 117.636719 C 991.488281 110.210938 986.796875 104.371094 980.585938 100.171875 C 974.378906 95.972656 966.621094 93.863281 957.328125 93.863281 C 948.164062 93.863281 940.445312 95.953125 934.21875 100.132812 C 927.96875 104.308594 923.269531 110.109375 920.125 117.554688 C 916.960938 125 915.390625 133.621094 915.390625 143.417969 C 915.390625 153.15625 916.941406 161.757812 920.066406 169.179688 C 923.191406 176.625 927.867188 182.445312 934.113281 186.644531 C 940.363281 190.84375 948.101562 192.953125 957.328125 192.953125 C 966.496094 192.953125 974.21875 190.863281 980.445312 186.6875 C 986.691406 182.507812 991.410156 176.707031 994.632812 169.261719 C 997.839844 161.816406 999.453125 153.195312 999.453125 143.398438 C 999.453125 133.660156 997.863281 125.0625 994.675781 117.636719 Z M 974.765625 159.382812 C 973.726562 164.351562 971.828125 168.371094 969.089844 171.433594 C 966.355469 174.496094 962.476562 176.035156 957.433594 176.035156 C 952.328125 176.035156 948.425781 174.496094 945.691406 171.433594 C 942.957031 168.371094 941.054688 164.351562 940.015625 159.382812 C 938.972656 154.414062 938.441406 149.078125 938.441406 143.398438 C 938.441406 137.699219 938.972656 132.363281 940.015625 127.351562 C 941.054688 122.363281 942.957031 118.304688 945.691406 115.203125 C 948.425781 112.097656 952.347656 110.558594 957.433594 110.558594 C 962.457031 110.558594 966.355469 112.097656 969.089844 115.203125 C 971.828125 118.304688 973.726562 122.363281 974.765625 127.351562 C 975.828125 132.34375 976.339844 137.699219 976.339844 143.398438 C 976.339844 149.097656 975.808594 154.433594 974.765625 159.382812 Z M 974.765625 159.382812 "/>
</g>
</svg>
